<?xml version="1.0" encoding="UTF-8" standalone="no"?>
<!DOCTYPE svg PUBLIC "-//W3C//DTD SVG 1.1//EN"
 "http://www.w3.org/Graphics/SVG/1.1/DTD/svg11.dtd">
<!-- Generated by graphviz version 2.40.1 (20161225.0304)
 -->
<!-- Title: dependencies Pages: 1 -->
<svg width="934pt" height="211pt"
 viewBox="0.00 0.00 934.00 211.00" xmlns="http://www.w3.org/2000/svg" xmlns:xlink="http://www.w3.org/1999/xlink">
<g id="graph0" class="graph" transform="scale(1 1) rotate(0) translate(4 207)">
<title>dependencies</title>
<polygon fill="#ffffff" stroke="transparent" points="-4,4 -4,-207 930,-207 930,4 -4,4"/>
<text text-anchor="start" x="442.0091" y="-42.4" font-family="sans-serif" font-weight="bold" font-size="14.00" fill="#000000">Legend</text>
<polygon fill="#ffffb3" stroke="transparent" points="229,-10 229,-30 249,-30 249,-10 229,-10"/>
<text text-anchor="start" x="252.629" y="-15.4" font-family="sans-serif" font-size="14.00" fill="#000000"> &#160;Declarations</text>
<polygon fill="#8dd3c7" stroke="transparent" points="342,-10 342,-30 362,-30 362,-10 342,-10"/>
<text text-anchor="start" x="365.7251" y="-15.4" font-family="sans-serif" font-size="14.00" fill="#000000"> &#160;Module</text>
<polygon fill="#80b1d3" stroke="transparent" points="428,-10 428,-30 448,-30 448,-10 428,-10"/>
<text text-anchor="start" x="451.7812" y="-15.4" font-family="sans-serif" font-size="14.00" fill="#000000"> &#160;Bootstrap</text>
<polygon fill="#fdb462" stroke="transparent" points="525,-10 525,-30 545,-30 545,-10 525,-10"/>
<text text-anchor="start" x="548.6732" y="-15.4" font-family="sans-serif" font-size="14.00" fill="#000000"> &#160;Providers</text>
<polygon fill="#fb8072" stroke="transparent" points="621,-10 621,-30 641,-30 641,-10 621,-10"/>
<text text-anchor="start" x="644.7258" y="-15.4" font-family="sans-serif" font-size="14.00" fill="#000000"> &#160;Exports</text>
<g id="clust1" class="cluster">
<title>cluster_AssignmentManagerModule</title>
<polygon fill="none" stroke="#000000" stroke-dasharray="1,5" points="8,-70 8,-195 918,-195 918,-70 8,-70"/>
</g>
<g id="clust2" class="cluster">
<title>cluster_AssignmentManagerModule_declarations</title>
<polygon fill="none" stroke="#000000" points="16,-78 16,-130 910,-130 910,-78 16,-78"/>
</g>
<!-- AssignmentmanagerComponent -->
<g id="node1" class="node">
<title>AssignmentmanagerComponent</title>
<polygon fill="#ffffb3" stroke="#000000" points="902.41,-122 705.59,-122 705.59,-86 902.41,-86 902.41,-122"/>
<text text-anchor="middle" x="804" y="-99.8" font-family="Times,serif" font-size="14.00" fill="#000000">AssignmentmanagerComponent</text>
</g>
<!-- AssignmentManagerModule -->
<g id="node6" class="node">
<title>AssignmentManagerModule</title>
<polygon fill="#8dd3c7" stroke="#000000" points="490.1811,-187 487.1811,-191 466.1811,-191 463.1811,-187 313.8189,-187 313.8189,-151 490.1811,-151 490.1811,-187"/>
<text text-anchor="middle" x="402" y="-164.8" font-family="Times,serif" font-size="14.00" fill="#000000">AssignmentManagerModule</text>
</g>
<!-- AssignmentmanagerComponent&#45;&gt;AssignmentManagerModule -->
<g id="edge1" class="edge">
<title>AssignmentmanagerComponent&#45;&gt;AssignmentManagerModule</title>
<path fill="none" stroke="#000000" d="M804,-122.2843C804,-143.3211 804,-175 804,-175 804,-175 500.2206,-175 500.2206,-175"/>
<polygon fill="#000000" stroke="#000000" points="500.2206,-171.5001 490.2206,-175 500.2206,-178.5001 500.2206,-171.5001"/>
</g>
<!-- AssignmentFormComponent -->
<g id="node2" class="node">
<title>AssignmentFormComponent</title>
<polygon fill="#ffffb3" stroke="#000000" points="688.049,-122 509.951,-122 509.951,-86 688.049,-86 688.049,-122"/>
<text text-anchor="middle" x="599" y="-99.8" font-family="Times,serif" font-size="14.00" fill="#000000">AssignmentFormComponent</text>
</g>
<!-- AssignmentFormComponent&#45;&gt;AssignmentManagerModule -->
<g id="edge2" class="edge">
<title>AssignmentFormComponent&#45;&gt;AssignmentManagerModule</title>
<path fill="none" stroke="#000000" d="M599,-122.0225C599,-139.3734 599,-163 599,-163 599,-163 500.1284,-163 500.1284,-163"/>
<polygon fill="#000000" stroke="#000000" points="500.1285,-159.5001 490.1284,-163 500.1284,-166.5001 500.1285,-159.5001"/>
</g>
<!-- QuestionSetFormComponent -->
<g id="node3" class="node">
<title>QuestionSetFormComponent</title>
<polygon fill="#ffffb3" stroke="#000000" points="492.101,-122 311.899,-122 311.899,-86 492.101,-86 492.101,-122"/>
<text text-anchor="middle" x="402" y="-99.8" font-family="Times,serif" font-size="14.00" fill="#000000">QuestionSetFormComponent</text>
</g>
<!-- QuestionSetFormComponent&#45;&gt;AssignmentManagerModule -->
<g id="edge3" class="edge">
<title>QuestionSetFormComponent&#45;&gt;AssignmentManagerModule</title>
<path fill="none" stroke="#000000" d="M402,-122.1061C402,-122.1061 402,-140.991 402,-140.991"/>
<polygon fill="#000000" stroke="#000000" points="398.5001,-140.9909 402,-150.991 405.5001,-140.991 398.5001,-140.9909"/>
</g>
<!-- QuestionComponent -->
<g id="node4" class="node">
<title>QuestionComponent</title>
<polygon fill="#ffffb3" stroke="#000000" points="293.8795,-122 162.1205,-122 162.1205,-86 293.8795,-86 293.8795,-122"/>
<text text-anchor="middle" x="228" y="-99.8" font-family="Times,serif" font-size="14.00" fill="#000000">QuestionComponent</text>
</g>
<!-- QuestionComponent&#45;&gt;AssignmentManagerModule -->
<g id="edge4" class="edge">
<title>QuestionComponent&#45;&gt;AssignmentManagerModule</title>
<path fill="none" stroke="#000000" d="M228,-122.0225C228,-139.3734 228,-163 228,-163 228,-163 303.7256,-163 303.7256,-163"/>
<polygon fill="#000000" stroke="#000000" points="303.7257,-166.5001 313.7256,-163 303.7256,-159.5001 303.7257,-166.5001"/>
</g>
<!-- RubricComponent -->
<g id="node5" class="node">
<title>RubricComponent</title>
<polygon fill="#ffffb3" stroke="#000000" points="143.9356,-122 24.0644,-122 24.0644,-86 143.9356,-86 143.9356,-122"/>
<text text-anchor="middle" x="84" y="-99.8" font-family="Times,serif" font-size="14.00" fill="#000000">RubricComponent</text>
</g>
<!-- RubricComponent&#45;&gt;AssignmentManagerModule -->
<g id="edge5" class="edge">
<title>RubricComponent&#45;&gt;AssignmentManagerModule</title>
<path fill="none" stroke="#000000" d="M84,-122.2843C84,-143.3211 84,-175 84,-175 84,-175 303.8416,-175 303.8416,-175"/>
<polygon fill="#000000" stroke="#000000" points="303.8416,-178.5001 313.8416,-175 303.8415,-171.5001 303.8416,-178.5001"/>
</g>
</g>
</svg>
