<?xml version="1.0" encoding="UTF-8" standalone="no"?>
<!DOCTYPE svg PUBLIC "-//W3C//DTD SVG 1.1//EN"
 "http://www.w3.org/Graphics/SVG/1.1/DTD/svg11.dtd">
<!-- Generated by graphviz version 2.40.1 (20161225.0304)
 -->
<!-- Title: dependencies Pages: 1 -->
<svg width="1696pt" height="211pt"
 viewBox="0.00 0.00 1696.00 211.00" xmlns="http://www.w3.org/2000/svg" xmlns:xlink="http://www.w3.org/1999/xlink">
<g id="graph0" class="graph" transform="scale(1 1) rotate(0) translate(4 207)">
<title>dependencies</title>
<polygon fill="#ffffff" stroke="transparent" points="-4,4 -4,-207 1692,-207 1692,4 -4,4"/>
<text text-anchor="start" x="823.0091" y="-42.4" font-family="sans-serif" font-weight="bold" font-size="14.00" fill="#000000">Legend</text>
<polygon fill="#ffffb3" stroke="transparent" points="610,-10 610,-30 630,-30 630,-10 610,-10"/>
<text text-anchor="start" x="633.629" y="-15.4" font-family="sans-serif" font-size="14.00" fill="#000000"> &#160;Declarations</text>
<polygon fill="#8dd3c7" stroke="transparent" points="723,-10 723,-30 743,-30 743,-10 723,-10"/>
<text text-anchor="start" x="746.7251" y="-15.4" font-family="sans-serif" font-size="14.00" fill="#000000"> &#160;Module</text>
<polygon fill="#80b1d3" stroke="transparent" points="809,-10 809,-30 829,-30 829,-10 809,-10"/>
<text text-anchor="start" x="832.7812" y="-15.4" font-family="sans-serif" font-size="14.00" fill="#000000"> &#160;Bootstrap</text>
<polygon fill="#fdb462" stroke="transparent" points="906,-10 906,-30 926,-30 926,-10 906,-10"/>
<text text-anchor="start" x="929.6732" y="-15.4" font-family="sans-serif" font-size="14.00" fill="#000000"> &#160;Providers</text>
<polygon fill="#fb8072" stroke="transparent" points="1002,-10 1002,-30 1022,-30 1022,-10 1002,-10"/>
<text text-anchor="start" x="1025.7258" y="-15.4" font-family="sans-serif" font-size="14.00" fill="#000000"> &#160;Exports</text>
<g id="clust1" class="cluster">
<title>cluster_MyEventsModule</title>
<polygon fill="none" stroke="#000000" stroke-dasharray="1,5" points="8,-70 8,-195 1680,-195 1680,-70 8,-70"/>
</g>
<g id="clust2" class="cluster">
<title>cluster_MyEventsModule_declarations</title>
<polygon fill="none" stroke="#000000" points="16,-78 16,-130 1672,-130 1672,-78 16,-78"/>
</g>
<!-- MyeventsComponent -->
<g id="node1" class="node">
<title>MyeventsComponent</title>
<polygon fill="#ffffb3" stroke="#000000" points="1664.0422,-122 1527.9578,-122 1527.9578,-86 1664.0422,-86 1664.0422,-122"/>
<text text-anchor="middle" x="1596" y="-99.8" font-family="Times,serif" font-size="14.00" fill="#000000">MyeventsComponent</text>
</g>
<!-- MyEventsModule -->
<g id="node10" class="node">
<title>MyEventsModule</title>
<polygon fill="#8dd3c7" stroke="#000000" points="931.5968,-187 928.5968,-191 907.5968,-191 904.5968,-187 814.4032,-187 814.4032,-151 931.5968,-151 931.5968,-187"/>
<text text-anchor="middle" x="873" y="-164.8" font-family="Times,serif" font-size="14.00" fill="#000000">MyEventsModule</text>
</g>
<!-- MyeventsComponent&#45;&gt;MyEventsModule -->
<g id="edge1" class="edge">
<title>MyeventsComponent&#45;&gt;MyEventsModule</title>
<path fill="none" stroke="#000000" d="M1596,-122.0109C1596,-144.4852 1596,-180 1596,-180 1596,-180 941.5537,-180 941.5537,-180"/>
<polygon fill="#000000" stroke="#000000" points="941.5537,-176.5001 931.5537,-180 941.5537,-183.5001 941.5537,-176.5001"/>
</g>
<!-- SubmissionmanagerComponent -->
<g id="node2" class="node">
<title>SubmissionmanagerComponent</title>
<polygon fill="#ffffb3" stroke="#000000" points="1509.371,-122 1314.629,-122 1314.629,-86 1509.371,-86 1509.371,-122"/>
<text text-anchor="middle" x="1412" y="-99.8" font-family="Times,serif" font-size="14.00" fill="#000000">SubmissionmanagerComponent</text>
</g>
<!-- SubmissionmanagerComponent&#45;&gt;MyEventsModule -->
<g id="edge2" class="edge">
<title>SubmissionmanagerComponent&#45;&gt;MyEventsModule</title>
<path fill="none" stroke="#000000" d="M1412,-122.1289C1412,-142.5724 1412,-173 1412,-173 1412,-173 941.7085,-173 941.7085,-173"/>
<polygon fill="#000000" stroke="#000000" points="941.7085,-169.5001 931.7085,-173 941.7085,-176.5001 941.7085,-169.5001"/>
</g>
<!-- GradingmanagerComponent -->
<g id="node3" class="node">
<title>GradingmanagerComponent</title>
<polygon fill="#ffffb3" stroke="#000000" points="1296.9003,-122 1121.0997,-122 1121.0997,-86 1296.9003,-86 1296.9003,-122"/>
<text text-anchor="middle" x="1209" y="-99.8" font-family="Times,serif" font-size="14.00" fill="#000000">GradingmanagerComponent</text>
</g>
<!-- GradingmanagerComponent&#45;&gt;MyEventsModule -->
<g id="edge3" class="edge">
<title>GradingmanagerComponent&#45;&gt;MyEventsModule</title>
<path fill="none" stroke="#000000" d="M1209,-122.2667C1209,-140.5552 1209,-166 1209,-166 1209,-166 941.9112,-166 941.9112,-166"/>
<polygon fill="#000000" stroke="#000000" points="941.9113,-162.5001 931.9112,-166 941.9112,-169.5001 941.9113,-162.5001"/>
</g>
<!-- MaingradeComponent -->
<g id="node4" class="node">
<title>MaingradeComponent</title>
<polygon fill="#ffffb3" stroke="#000000" points="1102.972,-122 961.028,-122 961.028,-86 1102.972,-86 1102.972,-122"/>
<text text-anchor="middle" x="1032" y="-99.8" font-family="Times,serif" font-size="14.00" fill="#000000">MaingradeComponent</text>
</g>
<!-- MaingradeComponent&#45;&gt;MyEventsModule -->
<g id="edge4" class="edge">
<title>MaingradeComponent&#45;&gt;MyEventsModule</title>
<path fill="none" stroke="#000000" d="M1032,-122.0091C1032,-138.0494 1032,-159 1032,-159 1032,-159 941.754,-159 941.754,-159"/>
<polygon fill="#000000" stroke="#000000" points="941.754,-155.5001 931.754,-159 941.754,-162.5001 941.754,-155.5001"/>
</g>
<!-- InputChangeDirective -->
<g id="node5" class="node">
<title>InputChangeDirective</title>
<polygon fill="#ffffb3" stroke="#000000" points="943.4004,-122 802.5996,-122 802.5996,-86 943.4004,-86 943.4004,-122"/>
<text text-anchor="middle" x="873" y="-99.8" font-family="Times,serif" font-size="14.00" fill="#000000">InputChangeDirective</text>
</g>
<!-- InputChangeDirective&#45;&gt;MyEventsModule -->
<g id="edge5" class="edge">
<title>InputChangeDirective&#45;&gt;MyEventsModule</title>
<path fill="none" stroke="#000000" d="M873,-122.1061C873,-122.1061 873,-140.991 873,-140.991"/>
<polygon fill="#000000" stroke="#000000" points="869.5001,-140.9909 873,-150.991 876.5001,-140.991 869.5001,-140.9909"/>
</g>
<!-- GradeviewmanagerComponent -->
<g id="node6" class="node">
<title>GradeviewmanagerComponent</title>
<polygon fill="#ffffb3" stroke="#000000" points="784.4356,-122 593.5644,-122 593.5644,-86 784.4356,-86 784.4356,-122"/>
<text text-anchor="middle" x="689" y="-99.8" font-family="Times,serif" font-size="14.00" fill="#000000">GradeviewmanagerComponent</text>
</g>
<!-- GradeviewmanagerComponent&#45;&gt;MyEventsModule -->
<g id="edge6" class="edge">
<title>GradeviewmanagerComponent&#45;&gt;MyEventsModule</title>
<path fill="none" stroke="#000000" d="M689,-122.0091C689,-138.0494 689,-159 689,-159 689,-159 804.2754,-159 804.2754,-159"/>
<polygon fill="#000000" stroke="#000000" points="804.2754,-162.5001 814.2754,-159 804.2753,-155.5001 804.2754,-162.5001"/>
</g>
<!-- MaingradeviewComponent -->
<g id="node7" class="node">
<title>MaingradeviewComponent</title>
<polygon fill="#ffffb3" stroke="#000000" points="575.6839,-122 406.3161,-122 406.3161,-86 575.6839,-86 575.6839,-122"/>
<text text-anchor="middle" x="491" y="-99.8" font-family="Times,serif" font-size="14.00" fill="#000000">MaingradeviewComponent</text>
</g>
<!-- MaingradeviewComponent&#45;&gt;MyEventsModule -->
<g id="edge7" class="edge">
<title>MaingradeviewComponent&#45;&gt;MyEventsModule</title>
<path fill="none" stroke="#000000" d="M491,-122.2667C491,-140.5552 491,-166 491,-166 491,-166 804.1497,-166 804.1497,-166"/>
<polygon fill="#000000" stroke="#000000" points="804.1497,-169.5001 814.1497,-166 804.1496,-162.5001 804.1497,-169.5001"/>
</g>
<!-- RegradingmanagerComponent -->
<g id="node8" class="node">
<title>RegradingmanagerComponent</title>
<polygon fill="#ffffb3" stroke="#000000" points="387.8445,-122 200.1555,-122 200.1555,-86 387.8445,-86 387.8445,-122"/>
<text text-anchor="middle" x="294" y="-99.8" font-family="Times,serif" font-size="14.00" fill="#000000">RegradingmanagerComponent</text>
</g>
<!-- RegradingmanagerComponent&#45;&gt;MyEventsModule -->
<g id="edge8" class="edge">
<title>RegradingmanagerComponent&#45;&gt;MyEventsModule</title>
<path fill="none" stroke="#000000" d="M294,-122.1289C294,-142.5724 294,-173 294,-173 294,-173 804.2961,-173 804.2961,-173"/>
<polygon fill="#000000" stroke="#000000" points="804.2961,-176.5001 814.2961,-173 804.296,-169.5001 804.2961,-176.5001"/>
</g>
<!-- MainRegradeComponent -->
<g id="node9" class="node">
<title>MainRegradeComponent</title>
<polygon fill="#ffffb3" stroke="#000000" points="181.5239,-122 24.4761,-122 24.4761,-86 181.5239,-86 181.5239,-122"/>
<text text-anchor="middle" x="103" y="-99.8" font-family="Times,serif" font-size="14.00" fill="#000000">MainRegradeComponent</text>
</g>
<!-- MainRegradeComponent&#45;&gt;MyEventsModule -->
<g id="edge9" class="edge">
<title>MainRegradeComponent&#45;&gt;MyEventsModule</title>
<path fill="none" stroke="#000000" d="M103,-122.0109C103,-144.4852 103,-180 103,-180 103,-180 804.1758,-180 804.1758,-180"/>
<polygon fill="#000000" stroke="#000000" points="804.1758,-183.5001 814.1758,-180 804.1757,-176.5001 804.1758,-183.5001"/>
</g>
</g>
</svg>
