<?xml version="1.0" encoding="UTF-8" standalone="no"?>
<!DOCTYPE svg PUBLIC "-//W3C//DTD SVG 1.1//EN"
 "http://www.w3.org/Graphics/SVG/1.1/DTD/svg11.dtd">
<!-- Generated by graphviz version 2.40.1 (20161225.0304)
 -->
<!-- Title: dependencies Pages: 1 -->
<svg width="1280pt" height="211pt"
 viewBox="0.00 0.00 1280.00 211.00" xmlns="http://www.w3.org/2000/svg" xmlns:xlink="http://www.w3.org/1999/xlink">
<g id="graph0" class="graph" transform="scale(1 1) rotate(0) translate(4 207)">
<title>dependencies</title>
<polygon fill="#ffffff" stroke="transparent" points="-4,4 -4,-207 1276,-207 1276,4 -4,4"/>
<text text-anchor="start" x="615.0091" y="-42.4" font-family="sans-serif" font-weight="bold" font-size="14.00" fill="#000000">Legend</text>
<polygon fill="#ffffb3" stroke="transparent" points="402,-10 402,-30 422,-30 422,-10 402,-10"/>
<text text-anchor="start" x="425.629" y="-15.4" font-family="sans-serif" font-size="14.00" fill="#000000"> &#160;Declarations</text>
<polygon fill="#8dd3c7" stroke="transparent" points="515,-10 515,-30 535,-30 535,-10 515,-10"/>
<text text-anchor="start" x="538.7251" y="-15.4" font-family="sans-serif" font-size="14.00" fill="#000000"> &#160;Module</text>
<polygon fill="#80b1d3" stroke="transparent" points="601,-10 601,-30 621,-30 621,-10 601,-10"/>
<text text-anchor="start" x="624.7812" y="-15.4" font-family="sans-serif" font-size="14.00" fill="#000000"> &#160;Bootstrap</text>
<polygon fill="#fdb462" stroke="transparent" points="698,-10 698,-30 718,-30 718,-10 698,-10"/>
<text text-anchor="start" x="721.6732" y="-15.4" font-family="sans-serif" font-size="14.00" fill="#000000"> &#160;Providers</text>
<polygon fill="#fb8072" stroke="transparent" points="794,-10 794,-30 814,-30 814,-10 794,-10"/>
<text text-anchor="start" x="817.7258" y="-15.4" font-family="sans-serif" font-size="14.00" fill="#000000"> &#160;Exports</text>
<g id="clust1" class="cluster">
<title>cluster_PagesModule</title>
<polygon fill="none" stroke="#000000" stroke-dasharray="1,5" points="8,-70 8,-195 1264,-195 1264,-70 8,-70"/>
</g>
<g id="clust2" class="cluster">
<title>cluster_PagesModule_declarations</title>
<polygon fill="none" stroke="#000000" points="940,-78 940,-130 1256,-130 1256,-78 940,-78"/>
</g>
<g id="clust5" class="cluster">
<title>cluster_PagesModule_imports</title>
<polygon fill="none" stroke="#000000" points="16,-78 16,-130 932,-130 932,-78 16,-78"/>
</g>
<!-- PagesComponent -->
<g id="node1" class="node">
<title>PagesComponent</title>
<polygon fill="#ffffb3" stroke="#000000" points="1247.9888,-122 1134.0112,-122 1134.0112,-86 1247.9888,-86 1247.9888,-122"/>
<text text-anchor="middle" x="1191" y="-99.8" font-family="Times,serif" font-size="14.00" fill="#000000">PagesComponent</text>
</g>
<!-- PagesModule -->
<g id="node3" class="node">
<title>PagesModule</title>
<polygon fill="#8dd3c7" stroke="#000000" points="707.2064,-187 704.2064,-191 683.2064,-191 680.2064,-187 614.7936,-187 614.7936,-151 707.2064,-151 707.2064,-187"/>
<text text-anchor="middle" x="661" y="-164.8" font-family="Times,serif" font-size="14.00" fill="#000000">PagesModule</text>
</g>
<!-- PagesComponent&#45;&gt;PagesModule -->
<g id="edge1" class="edge">
<title>PagesComponent&#45;&gt;PagesModule</title>
<path fill="none" stroke="#000000" d="M1191,-122.2921C1191,-144.2057 1191,-178 1191,-178 1191,-178 717.1069,-178 717.1069,-178"/>
<polygon fill="#000000" stroke="#000000" points="717.1069,-174.5001 707.1069,-178 717.1068,-181.5001 717.1069,-174.5001"/>
</g>
<!-- ProfilemanagerComponent -->
<g id="node2" class="node">
<title>ProfilemanagerComponent</title>
<polygon fill="#ffffb3" stroke="#000000" points="1115.6274,-122 948.3726,-122 948.3726,-86 1115.6274,-86 1115.6274,-122"/>
<text text-anchor="middle" x="1032" y="-99.8" font-family="Times,serif" font-size="14.00" fill="#000000">ProfilemanagerComponent</text>
</g>
<!-- ProfilemanagerComponent&#45;&gt;PagesModule -->
<g id="edge2" class="edge">
<title>ProfilemanagerComponent&#45;&gt;PagesModule</title>
<path fill="none" stroke="#000000" d="M1032,-122.1061C1032,-141.3391 1032,-169 1032,-169 1032,-169 717.2373,-169 717.2373,-169"/>
<polygon fill="#000000" stroke="#000000" points="717.2373,-165.5001 707.2373,-169 717.2372,-172.5001 717.2373,-165.5001"/>
</g>
<!-- DashboardModule -->
<g id="node4" class="node">
<title>DashboardModule</title>
<polygon fill="#8dd3c7" stroke="#000000" points="924.191,-122 921.191,-126 900.191,-126 897.191,-122 803.809,-122 803.809,-86 924.191,-86 924.191,-122"/>
<text text-anchor="middle" x="864" y="-99.8" font-family="Times,serif" font-size="14.00" fill="#000000">DashboardModule</text>
</g>
<!-- DashboardModule&#45;&gt;PagesModule -->
<g id="edge3" class="edge">
<title>DashboardModule&#45;&gt;PagesModule</title>
<path fill="none" stroke="#000000" d="M864,-122.027C864,-138.3976 864,-160 864,-160 864,-160 717.3179,-160 717.3179,-160"/>
<polygon fill="#000000" stroke="#000000" points="717.3179,-156.5001 707.3179,-160 717.3178,-163.5001 717.3179,-156.5001"/>
</g>
<!-- CoursesModule -->
<g id="node5" class="node">
<title>CoursesModule</title>
<polygon fill="#8dd3c7" stroke="#000000" points="786.1514,-122 783.1514,-126 762.1514,-126 759.1514,-122 681.8486,-122 681.8486,-86 786.1514,-86 786.1514,-122"/>
<text text-anchor="middle" x="734" y="-99.8" font-family="Times,serif" font-size="14.00" fill="#000000">CoursesModule</text>
</g>
<!-- CoursesModule&#45;&gt;PagesModule -->
<g id="edge4" class="edge">
<title>CoursesModule&#45;&gt;PagesModule</title>
<path fill="none" stroke="#000000" d="M694.3889,-122.1061C694.3889,-122.1061 694.3889,-140.991 694.3889,-140.991"/>
<polygon fill="#000000" stroke="#000000" points="690.8889,-140.9909 694.3889,-150.991 697.8889,-140.991 690.8889,-140.9909"/>
</g>
<!-- CourseManagerModule -->
<g id="node6" class="node">
<title>CourseManagerModule</title>
<polygon fill="#8dd3c7" stroke="#000000" points="663.4552,-122 660.4552,-126 639.4552,-126 636.4552,-122 514.5448,-122 514.5448,-86 663.4552,-86 663.4552,-122"/>
<text text-anchor="middle" x="589" y="-99.8" font-family="Times,serif" font-size="14.00" fill="#000000">CourseManagerModule</text>
</g>
<!-- CourseManagerModule&#45;&gt;PagesModule -->
<g id="edge5" class="edge">
<title>CourseManagerModule&#45;&gt;PagesModule</title>
<path fill="none" stroke="#000000" d="M639.1872,-122.1061C639.1872,-122.1061 639.1872,-140.991 639.1872,-140.991"/>
<polygon fill="#000000" stroke="#000000" points="635.6873,-140.9909 639.1872,-150.991 642.6873,-140.991 635.6873,-140.9909"/>
</g>
<!-- AssignmentManagerModule -->
<g id="node7" class="node">
<title>AssignmentManagerModule</title>
<polygon fill="#8dd3c7" stroke="#000000" points="496.1811,-122 493.1811,-126 472.1811,-126 469.1811,-122 319.8189,-122 319.8189,-86 496.1811,-86 496.1811,-122"/>
<text text-anchor="middle" x="408" y="-99.8" font-family="Times,serif" font-size="14.00" fill="#000000">AssignmentManagerModule</text>
</g>
<!-- AssignmentManagerModule&#45;&gt;PagesModule -->
<g id="edge6" class="edge">
<title>AssignmentManagerModule&#45;&gt;PagesModule</title>
<path fill="none" stroke="#000000" d="M408,-122.027C408,-138.3976 408,-160 408,-160 408,-160 604.8901,-160 604.8901,-160"/>
<polygon fill="#000000" stroke="#000000" points="604.8901,-163.5001 614.8901,-160 604.89,-156.5001 604.8901,-163.5001"/>
</g>
<!-- EventManagerModule -->
<g id="node8" class="node">
<title>EventManagerModule</title>
<polygon fill="#8dd3c7" stroke="#000000" points="301.9566,-122 298.9566,-126 277.9566,-126 274.9566,-122 160.0434,-122 160.0434,-86 301.9566,-86 301.9566,-122"/>
<text text-anchor="middle" x="231" y="-99.8" font-family="Times,serif" font-size="14.00" fill="#000000">EventManagerModule</text>
</g>
<!-- EventManagerModule&#45;&gt;PagesModule -->
<g id="edge7" class="edge">
<title>EventManagerModule&#45;&gt;PagesModule</title>
<path fill="none" stroke="#000000" d="M231,-122.1061C231,-141.3391 231,-169 231,-169 231,-169 604.5739,-169 604.5739,-169"/>
<polygon fill="#000000" stroke="#000000" points="604.5739,-172.5001 614.5739,-169 604.5739,-165.5001 604.5739,-172.5001"/>
</g>
<!-- MyEventsModule -->
<g id="node9" class="node">
<title>MyEventsModule</title>
<polygon fill="#8dd3c7" stroke="#000000" points="141.5968,-122 138.5968,-126 117.5968,-126 114.5968,-122 24.4032,-122 24.4032,-86 141.5968,-86 141.5968,-122"/>
<text text-anchor="middle" x="83" y="-99.8" font-family="Times,serif" font-size="14.00" fill="#000000">MyEventsModule</text>
</g>
<!-- MyEventsModule&#45;&gt;PagesModule -->
<g id="edge8" class="edge">
<title>MyEventsModule&#45;&gt;PagesModule</title>
<path fill="none" stroke="#000000" d="M83,-122.2921C83,-144.2057 83,-178 83,-178 83,-178 604.6769,-178 604.6769,-178"/>
<polygon fill="#000000" stroke="#000000" points="604.6769,-181.5001 614.6769,-178 604.6769,-174.5001 604.6769,-181.5001"/>
</g>
</g>
</svg>
