<?xml version="1.0" encoding="UTF-8" standalone="no"?>
<!DOCTYPE svg PUBLIC "-//W3C//DTD SVG 1.1//EN"
 "http://www.w3.org/Graphics/SVG/1.1/DTD/svg11.dtd">
<!-- Generated by graphviz version 2.40.1 (20161225.0304)
 -->
<!-- Title: dependencies Pages: 1 -->
<svg width="934pt" height="211pt"
 viewBox="0.00 0.00 934.00 211.00" xmlns="http://www.w3.org/2000/svg" xmlns:xlink="http://www.w3.org/1999/xlink">
<g id="graph0" class="graph" transform="scale(1 1) rotate(0) translate(4 207)">
<title>dependencies</title>
<polygon fill="#ffffff" stroke="transparent" points="-4,4 -4,-207 930,-207 930,4 -4,4"/>
<text text-anchor="start" x="442.0091" y="-42.4" font-family="sans-serif" font-weight="bold" font-size="14.00" fill="#000000">Legend</text>
<polygon fill="#ffffb3" stroke="transparent" points="229,-10 229,-30 249,-30 249,-10 229,-10"/>
<text text-anchor="start" x="252.629" y="-15.4" font-family="sans-serif" font-size="14.00" fill="#000000"> &#160;Declarations</text>
<polygon fill="#8dd3c7" stroke="transparent" points="342,-10 342,-30 362,-30 362,-10 342,-10"/>
<text text-anchor="start" x="365.7251" y="-15.4" font-family="sans-serif" font-size="14.00" fill="#000000"> &#160;Module</text>
<polygon fill="#80b1d3" stroke="transparent" points="428,-10 428,-30 448,-30 448,-10 428,-10"/>
<text text-anchor="start" x="451.7812" y="-15.4" font-family="sans-serif" font-size="14.00" fill="#000000"> &#160;Bootstrap</text>
<polygon fill="#fdb462" stroke="transparent" points="525,-10 525,-30 545,-30 545,-10 525,-10"/>
<text text-anchor="start" x="548.6732" y="-15.4" font-family="sans-serif" font-size="14.00" fill="#000000"> &#160;Providers</text>
<polygon fill="#fb8072" stroke="transparent" points="621,-10 621,-30 641,-30 641,-10 621,-10"/>
<text text-anchor="start" x="644.7258" y="-15.4" font-family="sans-serif" font-size="14.00" fill="#000000"> &#160;Exports</text>
<g id="clust1" class="cluster">
<title>cluster_AuthModule</title>
<polygon fill="none" stroke="#000000" stroke-dasharray="1,5" points="8,-70 8,-195 918,-195 918,-70 8,-70"/>
</g>
<g id="clust2" class="cluster">
<title>cluster_AuthModule_declarations</title>
<polygon fill="none" stroke="#000000" points="172,-78 172,-130 910,-130 910,-78 172,-78"/>
</g>
<g id="clust8" class="cluster">
<title>cluster_AuthModule_imports</title>
<polygon fill="none" stroke="#000000" points="16,-78 16,-130 164,-130 164,-78 16,-78"/>
</g>
<!-- AuthComponent -->
<g id="node1" class="node">
<title>AuthComponent</title>
<polygon fill="#ffffb3" stroke="#000000" points="901.8301,-122 792.1699,-122 792.1699,-86 901.8301,-86 901.8301,-122"/>
<text text-anchor="middle" x="847" y="-99.8" font-family="Times,serif" font-size="14.00" fill="#000000">AuthComponent</text>
</g>
<!-- AuthModule -->
<g id="node6" class="node">
<title>AuthModule</title>
<polygon fill="#8dd3c7" stroke="#000000" points="543.5482,-187 540.5482,-191 519.5482,-191 516.5482,-187 456.4518,-187 456.4518,-151 543.5482,-151 543.5482,-187"/>
<text text-anchor="middle" x="500" y="-164.8" font-family="Times,serif" font-size="14.00" fill="#000000">AuthModule</text>
</g>
<!-- AuthComponent&#45;&gt;AuthModule -->
<g id="edge1" class="edge">
<title>AuthComponent&#45;&gt;AuthModule</title>
<path fill="none" stroke="#000000" d="M847,-122.2843C847,-143.3211 847,-175 847,-175 847,-175 553.5964,-175 553.5964,-175"/>
<polygon fill="#000000" stroke="#000000" points="553.5965,-171.5001 543.5964,-175 553.5964,-178.5001 553.5965,-171.5001"/>
</g>
<!-- LoginComponent -->
<g id="node2" class="node">
<title>LoginComponent</title>
<polygon fill="#ffffb3" stroke="#000000" points="774.2758,-122 659.7242,-122 659.7242,-86 774.2758,-86 774.2758,-122"/>
<text text-anchor="middle" x="717" y="-99.8" font-family="Times,serif" font-size="14.00" fill="#000000">LoginComponent</text>
</g>
<!-- LoginComponent&#45;&gt;AuthModule -->
<g id="edge2" class="edge">
<title>LoginComponent&#45;&gt;AuthModule</title>
<path fill="none" stroke="#000000" d="M717,-122.0225C717,-139.3734 717,-163 717,-163 717,-163 553.6522,-163 553.6522,-163"/>
<polygon fill="#000000" stroke="#000000" points="553.6522,-159.5001 543.6522,-163 553.6521,-166.5001 553.6522,-159.5001"/>
</g>
<!-- LogoutComponent -->
<g id="node3" class="node">
<title>LogoutComponent</title>
<polygon fill="#ffffb3" stroke="#000000" points="641.7758,-122 520.2242,-122 520.2242,-86 641.7758,-86 641.7758,-122"/>
<text text-anchor="middle" x="581" y="-99.8" font-family="Times,serif" font-size="14.00" fill="#000000">LogoutComponent</text>
</g>
<!-- LogoutComponent&#45;&gt;AuthModule -->
<g id="edge3" class="edge">
<title>LogoutComponent&#45;&gt;AuthModule</title>
<path fill="none" stroke="#000000" d="M531.9429,-122.1061C531.9429,-122.1061 531.9429,-140.991 531.9429,-140.991"/>
<polygon fill="#000000" stroke="#000000" points="528.4429,-140.9909 531.9429,-150.991 535.4429,-140.991 528.4429,-140.9909"/>
</g>
<!-- ResetpasswordComponent -->
<g id="node4" class="node">
<title>ResetpasswordComponent</title>
<polygon fill="#ffffb3" stroke="#000000" points="501.8047,-122 336.1953,-122 336.1953,-86 501.8047,-86 501.8047,-122"/>
<text text-anchor="middle" x="419" y="-99.8" font-family="Times,serif" font-size="14.00" fill="#000000">ResetpasswordComponent</text>
</g>
<!-- ResetpasswordComponent&#45;&gt;AuthModule -->
<g id="edge4" class="edge">
<title>ResetpasswordComponent&#45;&gt;AuthModule</title>
<path fill="none" stroke="#000000" d="M478.9394,-122.1061C478.9394,-122.1061 478.9394,-140.991 478.9394,-140.991"/>
<polygon fill="#000000" stroke="#000000" points="475.4394,-140.9909 478.9394,-150.991 482.4394,-140.991 475.4394,-140.9909"/>
</g>
<!-- NotFoundComponent -->
<g id="node5" class="node">
<title>NotFoundComponent</title>
<polygon fill="#ffffb3" stroke="#000000" points="318.1122,-122 179.8878,-122 179.8878,-86 318.1122,-86 318.1122,-122"/>
<text text-anchor="middle" x="249" y="-99.8" font-family="Times,serif" font-size="14.00" fill="#000000">NotFoundComponent</text>
</g>
<!-- NotFoundComponent&#45;&gt;AuthModule -->
<g id="edge5" class="edge">
<title>NotFoundComponent&#45;&gt;AuthModule</title>
<path fill="none" stroke="#000000" d="M249,-122.0225C249,-139.3734 249,-163 249,-163 249,-163 446.2791,-163 446.2791,-163"/>
<polygon fill="#000000" stroke="#000000" points="446.2792,-166.5001 456.2791,-163 446.2791,-159.5001 446.2792,-166.5001"/>
</g>
<!-- AuthRoutingModule -->
<g id="node7" class="node">
<title>AuthRoutingModule</title>
<polygon fill="#8dd3c7" stroke="#000000" points="156.1652,-122 153.1652,-126 132.1652,-126 129.1652,-122 23.8348,-122 23.8348,-86 156.1652,-86 156.1652,-122"/>
<text text-anchor="middle" x="90" y="-99.8" font-family="Times,serif" font-size="14.00" fill="#000000">AuthRoutingModule</text>
</g>
<!-- AuthRoutingModule&#45;&gt;AuthModule -->
<g id="edge6" class="edge">
<title>AuthRoutingModule&#45;&gt;AuthModule</title>
<path fill="none" stroke="#000000" d="M90,-122.2843C90,-143.3211 90,-175 90,-175 90,-175 446.1228,-175 446.1228,-175"/>
<polygon fill="#000000" stroke="#000000" points="446.1229,-178.5001 456.1228,-175 446.1228,-171.5001 446.1229,-178.5001"/>
</g>
</g>
</svg>
