<?xml version="1.0" encoding="UTF-8" standalone="no"?>
<!DOCTYPE svg PUBLIC "-//W3C//DTD SVG 1.1//EN"
 "http://www.w3.org/Graphics/SVG/1.1/DTD/svg11.dtd">
<!-- Generated by graphviz version 2.40.1 (20161225.0304)
 -->
<!-- Title: dependencies Pages: 1 -->
<svg width="1873pt" height="211pt"
 viewBox="0.00 0.00 1873.00 211.00" xmlns="http://www.w3.org/2000/svg" xmlns:xlink="http://www.w3.org/1999/xlink">
<g id="graph0" class="graph" transform="scale(1 1) rotate(0) translate(4 207)">
<title>dependencies</title>
<polygon fill="#ffffff" stroke="transparent" points="-4,4 -4,-207 1869,-207 1869,4 -4,4"/>
<text text-anchor="start" x="911.5091" y="-42.4" font-family="sans-serif" font-weight="bold" font-size="14.00" fill="#000000">Legend</text>
<polygon fill="#ffffb3" stroke="transparent" points="698.5,-10 698.5,-30 718.5,-30 718.5,-10 698.5,-10"/>
<text text-anchor="start" x="722.129" y="-15.4" font-family="sans-serif" font-size="14.00" fill="#000000"> &#160;Declarations</text>
<polygon fill="#8dd3c7" stroke="transparent" points="811.5,-10 811.5,-30 831.5,-30 831.5,-10 811.5,-10"/>
<text text-anchor="start" x="835.2251" y="-15.4" font-family="sans-serif" font-size="14.00" fill="#000000"> &#160;Module</text>
<polygon fill="#80b1d3" stroke="transparent" points="897.5,-10 897.5,-30 917.5,-30 917.5,-10 897.5,-10"/>
<text text-anchor="start" x="921.2812" y="-15.4" font-family="sans-serif" font-size="14.00" fill="#000000"> &#160;Bootstrap</text>
<polygon fill="#fdb462" stroke="transparent" points="994.5,-10 994.5,-30 1014.5,-30 1014.5,-10 994.5,-10"/>
<text text-anchor="start" x="1018.1732" y="-15.4" font-family="sans-serif" font-size="14.00" fill="#000000"> &#160;Providers</text>
<polygon fill="#fb8072" stroke="transparent" points="1090.5,-10 1090.5,-30 1110.5,-30 1110.5,-10 1090.5,-10"/>
<text text-anchor="start" x="1114.2258" y="-15.4" font-family="sans-serif" font-size="14.00" fill="#000000"> &#160;Exports</text>
<g id="clust1" class="cluster">
<title>cluster_CourseManagerModule</title>
<polygon fill="none" stroke="#000000" stroke-dasharray="1,5" points="8,-70 8,-195 1857,-195 1857,-70 8,-70"/>
</g>
<g id="clust2" class="cluster">
<title>cluster_CourseManagerModule_declarations</title>
<polygon fill="none" stroke="#000000" points="930,-78 930,-130 1849,-130 1849,-78 930,-78"/>
</g>
<g id="clust9" class="cluster">
<title>cluster_CourseManagerModule_imports</title>
<polygon fill="none" stroke="#000000" points="16,-78 16,-130 922,-130 922,-78 16,-78"/>
</g>
<!-- CoursemanagerComponent -->
<g id="node1" class="node">
<title>CoursemanagerComponent</title>
<polygon fill="#ffffb3" stroke="#000000" points="1840.6839,-122 1671.3161,-122 1671.3161,-86 1840.6839,-86 1840.6839,-122"/>
<text text-anchor="middle" x="1756" y="-99.8" font-family="Times,serif" font-size="14.00" fill="#000000">CoursemanagerComponent</text>
</g>
<!-- CourseManagerModule -->
<g id="node7" class="node">
<title>CourseManagerModule</title>
<polygon fill="#8dd3c7" stroke="#000000" points="1091.4552,-187 1088.4552,-191 1067.4552,-191 1064.4552,-187 942.5448,-187 942.5448,-151 1091.4552,-151 1091.4552,-187"/>
<text text-anchor="middle" x="1017" y="-164.8" font-family="Times,serif" font-size="14.00" fill="#000000">CourseManagerModule</text>
</g>
<!-- CoursemanagerComponent&#45;&gt;CourseManagerModule -->
<g id="edge1" class="edge">
<title>CoursemanagerComponent&#45;&gt;CourseManagerModule</title>
<path fill="none" stroke="#000000" d="M1756,-122.0908C1756,-145.1328 1756,-182 1756,-182 1756,-182 1101.5836,-182 1101.5836,-182"/>
<polygon fill="#000000" stroke="#000000" points="1101.5836,-178.5001 1091.5836,-182 1101.5835,-185.5001 1101.5836,-178.5001"/>
</g>
<!-- RolesComponent -->
<g id="node2" class="node">
<title>RolesComponent</title>
<polygon fill="#ffffb3" stroke="#000000" points="1653.719,-122 1540.281,-122 1540.281,-86 1653.719,-86 1653.719,-122"/>
<text text-anchor="middle" x="1597" y="-99.8" font-family="Times,serif" font-size="14.00" fill="#000000">RolesComponent</text>
</g>
<!-- RolesComponent&#45;&gt;CourseManagerModule -->
<g id="edge2" class="edge">
<title>RolesComponent&#45;&gt;CourseManagerModule</title>
<path fill="none" stroke="#000000" d="M1597,-122.2843C1597,-143.3211 1597,-175 1597,-175 1597,-175 1101.6375,-175 1101.6375,-175"/>
<polygon fill="#000000" stroke="#000000" points="1101.6375,-171.5001 1091.6375,-175 1101.6374,-178.5001 1101.6375,-171.5001"/>
</g>
<!-- SectionsComponent -->
<g id="node3" class="node">
<title>SectionsComponent</title>
<polygon fill="#ffffb3" stroke="#000000" points="1522.2702,-122 1393.7298,-122 1393.7298,-86 1522.2702,-86 1522.2702,-122"/>
<text text-anchor="middle" x="1458" y="-99.8" font-family="Times,serif" font-size="14.00" fill="#000000">SectionsComponent</text>
</g>
<!-- SectionsComponent&#45;&gt;CourseManagerModule -->
<g id="edge3" class="edge">
<title>SectionsComponent&#45;&gt;CourseManagerModule</title>
<path fill="none" stroke="#000000" d="M1458,-122.1061C1458,-141.3391 1458,-169 1458,-169 1458,-169 1101.8096,-169 1101.8096,-169"/>
<polygon fill="#000000" stroke="#000000" points="1101.8097,-165.5001 1091.8096,-169 1101.8096,-172.5001 1101.8097,-165.5001"/>
</g>
<!-- TopicsComponent -->
<g id="node4" class="node">
<title>TopicsComponent</title>
<polygon fill="#ffffb3" stroke="#000000" points="1375.9356,-122 1256.0644,-122 1256.0644,-86 1375.9356,-86 1375.9356,-122"/>
<text text-anchor="middle" x="1316" y="-99.8" font-family="Times,serif" font-size="14.00" fill="#000000">TopicsComponent</text>
</g>
<!-- TopicsComponent&#45;&gt;CourseManagerModule -->
<g id="edge4" class="edge">
<title>TopicsComponent&#45;&gt;CourseManagerModule</title>
<path fill="none" stroke="#000000" d="M1316,-122.0225C1316,-139.3734 1316,-163 1316,-163 1316,-163 1101.679,-163 1101.679,-163"/>
<polygon fill="#000000" stroke="#000000" points="1101.6791,-159.5001 1091.679,-163 1101.679,-166.5001 1101.6791,-159.5001"/>
</g>
<!-- RoasterComponent -->
<g id="node5" class="node">
<title>RoasterComponent</title>
<polygon fill="#ffffb3" stroke="#000000" points="1238.094,-122 1113.906,-122 1113.906,-86 1238.094,-86 1238.094,-122"/>
<text text-anchor="middle" x="1176" y="-99.8" font-family="Times,serif" font-size="14.00" fill="#000000">RoasterComponent</text>
</g>
<!-- RoasterComponent&#45;&gt;CourseManagerModule -->
<g id="edge5" class="edge">
<title>RoasterComponent&#45;&gt;CourseManagerModule</title>
<path fill="none" stroke="#000000" d="M1176,-122.2396C1176,-137.5706 1176,-157 1176,-157 1176,-157 1101.8442,-157 1101.8442,-157"/>
<polygon fill="#000000" stroke="#000000" points="1101.8442,-153.5001 1091.8442,-157 1101.8441,-160.5001 1101.8442,-153.5001"/>
</g>
<!-- UnauthorizedComponent -->
<g id="node6" class="node">
<title>UnauthorizedComponent</title>
<polygon fill="#ffffb3" stroke="#000000" points="1095.5253,-122 938.4747,-122 938.4747,-86 1095.5253,-86 1095.5253,-122"/>
<text text-anchor="middle" x="1017" y="-99.8" font-family="Times,serif" font-size="14.00" fill="#000000">UnauthorizedComponent</text>
</g>
<!-- UnauthorizedComponent&#45;&gt;CourseManagerModule -->
<g id="edge6" class="edge">
<title>UnauthorizedComponent&#45;&gt;CourseManagerModule</title>
<path fill="none" stroke="#000000" d="M1017,-122.1061C1017,-122.1061 1017,-140.991 1017,-140.991"/>
<polygon fill="#000000" stroke="#000000" points="1013.5001,-140.9909 1017,-150.991 1020.5001,-140.991 1013.5001,-140.9909"/>
</g>
<!-- CourseManagerRoutingModule -->
<g id="node8" class="node">
<title>CourseManagerRoutingModule</title>
<polygon fill="#8dd3c7" stroke="#000000" points="914.073,-122 911.073,-126 890.073,-126 887.073,-122 719.927,-122 719.927,-86 914.073,-86 914.073,-122"/>
<text text-anchor="middle" x="817" y="-99.8" font-family="Times,serif" font-size="14.00" fill="#000000">CourseManagerRoutingModule</text>
</g>
<!-- CourseManagerRoutingModule&#45;&gt;CourseManagerModule -->
<g id="edge7" class="edge">
<title>CourseManagerRoutingModule&#45;&gt;CourseManagerModule</title>
<path fill="none" stroke="#000000" d="M817,-122.2396C817,-137.5706 817,-157 817,-157 817,-157 932.5274,-157 932.5274,-157"/>
<polygon fill="#000000" stroke="#000000" points="932.5274,-160.5001 942.5274,-157 932.5273,-153.5001 932.5274,-160.5001"/>
</g>
<!-- AssignmentManagerModule -->
<g id="node9" class="node">
<title>AssignmentManagerModule</title>
<polygon fill="#8dd3c7" stroke="#000000" points="702.1811,-122 699.1811,-126 678.1811,-126 675.1811,-122 525.8189,-122 525.8189,-86 702.1811,-86 702.1811,-122"/>
<text text-anchor="middle" x="614" y="-99.8" font-family="Times,serif" font-size="14.00" fill="#000000">AssignmentManagerModule</text>
</g>
<!-- AssignmentManagerModule&#45;&gt;CourseManagerModule -->
<g id="edge8" class="edge">
<title>AssignmentManagerModule&#45;&gt;CourseManagerModule</title>
<path fill="none" stroke="#000000" d="M614,-122.0225C614,-139.3734 614,-163 614,-163 614,-163 932.1433,-163 932.1433,-163"/>
<polygon fill="#000000" stroke="#000000" points="932.1433,-166.5001 942.1433,-163 932.1432,-159.5001 932.1433,-166.5001"/>
</g>
<!-- EventManagerModule -->
<g id="node10" class="node">
<title>EventManagerModule</title>
<polygon fill="#8dd3c7" stroke="#000000" points="507.9566,-122 504.9566,-126 483.9566,-126 480.9566,-122 366.0434,-122 366.0434,-86 507.9566,-86 507.9566,-122"/>
<text text-anchor="middle" x="437" y="-99.8" font-family="Times,serif" font-size="14.00" fill="#000000">EventManagerModule</text>
</g>
<!-- EventManagerModule&#45;&gt;CourseManagerModule -->
<g id="edge9" class="edge">
<title>EventManagerModule&#45;&gt;CourseManagerModule</title>
<path fill="none" stroke="#000000" d="M437,-122.1061C437,-141.3391 437,-169 437,-169 437,-169 932.3625,-169 932.3625,-169"/>
<polygon fill="#000000" stroke="#000000" points="932.3626,-172.5001 942.3625,-169 932.3625,-165.5001 932.3626,-172.5001"/>
</g>
<!-- MyEventsModule -->
<g id="node11" class="node">
<title>MyEventsModule</title>
<polygon fill="#8dd3c7" stroke="#000000" points="347.5968,-122 344.5968,-126 323.5968,-126 320.5968,-122 230.4032,-122 230.4032,-86 347.5968,-86 347.5968,-122"/>
<text text-anchor="middle" x="289" y="-99.8" font-family="Times,serif" font-size="14.00" fill="#000000">MyEventsModule</text>
</g>
<!-- MyEventsModule&#45;&gt;CourseManagerModule -->
<g id="edge10" class="edge">
<title>MyEventsModule&#45;&gt;CourseManagerModule</title>
<path fill="none" stroke="#000000" d="M289,-122.2843C289,-143.3211 289,-175 289,-175 289,-175 932.5124,-175 932.5124,-175"/>
<polygon fill="#000000" stroke="#000000" points="932.5125,-178.5001 942.5124,-175 932.5124,-171.5001 932.5125,-178.5001"/>
</g>
<!-- GradeSubManagementModule -->
<g id="node12" class="node">
<title>GradeSubManagementModule</title>
<polygon fill="#8dd3c7" stroke="#000000" points="212.1134,-122 209.1134,-126 188.1134,-126 185.1134,-122 23.8866,-122 23.8866,-86 212.1134,-86 212.1134,-122"/>
<text text-anchor="middle" x="118" y="-99.8" font-family="Times,serif" font-size="14.00" fill="#000000">GradeSubManagementModule</text>
</g>
<!-- GradeSubManagementModule&#45;&gt;CourseManagerModule -->
<g id="edge11" class="edge">
<title>GradeSubManagementModule&#45;&gt;CourseManagerModule</title>
<path fill="none" stroke="#000000" d="M118,-122.0908C118,-145.1328 118,-182 118,-182 118,-182 932.2825,-182 932.2825,-182"/>
<polygon fill="#000000" stroke="#000000" points="932.2826,-185.5001 942.2825,-182 932.2825,-178.5001 932.2826,-185.5001"/>
</g>
</g>
</svg>
